# xmcd CD database file
#
# Track frame offsets:
#	150
#	34157
#	58237
#	69599
#	120871
#	131374
#	156228
#	184473
#	207585
#	216121
#	243293
#	273582
#	288818
#	316414
#
# Disc length: 4644 seconds
#
# Revision: 0
# Processed by: cddbd v1.5PL3 Copyright (c) Steve Scherf et al.
# Submitted via: CDex 1.51
#
DISCID=d612220e
DTITLE=Hennessy and Jazz - Hennessy and Jazz
DYEAR=2004
DGENRE=Jazz
TTITLE0=Ансамбль Александра Беренсона - What About Latin
TTITLE1=Давид Голощекин, Андрей Кондаков - Жимолость
TTITLE2=Вокальная группа Digest - Жди от меня известий
TTITLE3=Ансамбль Алексея Самарина - Удивленный лемур
TTITLE4=Вадим Лебедев, Григорий Воскобойник - Наша любовь
TTITLE5=Алексей Попов и "Four and More" - Ты не знаешь, что такое любовь
TTITLE6=Ленинградский диксиленд - Rout 66
TTITLE7=Сергей Григорьев - Все еще влюблен
TTITLE8=Группа Tiramisu - Сколько ты всего натворил
TTITLE9=Андрей Кондаков, Игорь Бутман - Сказка под дождем
TTITLE10=Группа Doo Bop Sound - Васаби
TTITLE11=Биг-бенд Сергея Гусятинского - 42 улица
TTITLE12=Трио Александра Гуреева - Блюз Королевский Парк
TTITLE13=Вячеслав Гайворонский, Андрей Кондаков, Владимир Волков - Вальс
EXTD=YEAR: 2004
EXTT0=
EXTT1=
EXTT2=
EXTT3=
EXTT4=
EXTT5=
EXTT6=
EXTT7=
EXTT8=
EXTT9=
EXTT10=
EXTT11=
EXTT12=
EXTT13=
PLAYORDER=
